<svg xmlns="http://www.w3.org/2000/svg" width="1em" height="1em" viewBox="0 0 24 24"><path fill="black" fill-rule="evenodd" d="M9.5 19.5a1 1 0 1 0 0-2a1 1 0 0 0 0 2m0 1a2 2 0 1 0 0-4a2 2 0 0 0 0 4m7-1a1 1 0 1 0 0-2a1 1 0 0 0 0 2m0 1a2 2 0 1 0 0-4a2 2 0 0 0 0 4M3 4a.5.5 0 0 1 .5-.5h2a.5.5 0 0 1 .476.348L9.37 14.5H17a.5.5 0 0 1 0 1H9.004a.5.5 0 0 1-.476-.348L5.135 4.5H3.5A.5.5 0 0 1 3 4" clip-rule="evenodd"/><path fill="black" d="M8.5 13L6 6h13.337a.5.5 0 0 1 .48.637l-1.713 6a.5.5 0 0 1-.481.363z"/></svg>